<svg id="visual" viewBox="0 0 900 600" width="900" height="600" xmlns="http://www.w3.org/2000/svg" xmlns:xlink="http://www.w3.org/1999/xlink" version="1.1"><path d="M452 0L448.7 5.5C445.3 11 438.7 22 475.7 33.2C512.7 44.3 593.3 55.7 579.5 66.8C565.7 78 457.3 89 431 100C404.7 111 460.3 122 461 133.2C461.7 144.3 407.3 155.7 425.8 166.8C444.3 178 535.7 189 541.8 200C548 211 469 222 447 233.2C425 244.3 460 255.7 433.7 266.8C407.3 278 319.7 289 323.2 300C326.7 311 421.3 322 478.2 333.2C535 344.3 554 355.7 536.7 366.8C519.3 378 465.7 389 471.7 400C477.7 411 543.3 422 538.7 433.2C534 444.3 459 455.7 432.7 466.8C406.3 478 428.7 489 431.8 500C435 511 419 522 422.7 533.2C426.3 544.3 449.7 555.7 456.5 566.8C463.3 578 453.7 589 448.8 594.5L444 600L0 600L0 594.5C0 589 0 578 0 566.8C0 555.7 0 544.3 0 533.2C0 522 0 511 0 500C0 489 0 478 0 466.8C0 455.7 0 444.3 0 433.2C0 422 0 411 0 400C0 389 0 378 0 366.8C0 355.7 0 344.3 0 333.2C0 322 0 311 0 300C0 289 0 278 0 266.8C0 255.7 0 244.3 0 233.2C0 222 0 211 0 200C0 189 0 178 0 166.8C0 155.7 0 144.3 0 133.2C0 122 0 111 0 100C0 89 0 78 0 66.8C0 55.7 0 44.3 0 33.2C0 22 0 11 0 5.5L0 0Z" fill="#000000" stroke-linecap="round" stroke-linejoin="miter"></path></svg>