<svg id="visual" viewBox="0 0 900 600" width="900" height="600" xmlns="http://www.w3.org/2000/svg" xmlns:xlink="http://www.w3.org/1999/xlink" version="1.1"><g transform="translate(31.82268157702714 62.35676547728292)"><path d="M238.5 -325.1C300.9 -231.9 337.5 -148.9 379.4 -46.9C421.2 55.2 468.3 176.3 433.3 262.7C398.4 349 281.4 400.5 168.2 426.1C55 451.7 -54.6 451.4 -130.7 404.2C-206.9 357 -249.6 262.9 -317.7 170.8C-385.9 78.8 -479.5 -11.1 -503.1 -125.4C-526.7 -239.7 -480.3 -378.4 -384.8 -465.7C-289.3 -553.1 -144.6 -589 -28.3 -555.3C88.1 -521.6 176.1 -418.2 238.5 -325.1" fill="#ffffff"></path></g></svg>