<svg id="visual" viewBox="0 0 600 900" width="600" height="900" xmlns="http://www.w3.org/2000/svg" xmlns:xlink="http://www.w3.org/1999/xlink" version="1.1"><path d="M0 348L16.7 355C33.3 362 66.7 376 100 367.7C133.3 359.3 166.7 328.7 200 335.3C233.3 342 266.7 386 300 400.8C333.3 415.7 366.7 401.3 400 384.7C433.3 368 466.7 349 500 340.2C533.3 331.3 566.7 332.7 583.3 333.3L600 334L600 901L583.3 901C566.7 901 533.3 901 500 901C466.7 901 433.3 901 400 901C366.7 901 333.3 901 300 901C266.7 901 233.3 901 200 901C166.7 901 133.3 901 100 901C66.7 901 33.3 901 16.7 901L0 901Z" fill="#000000" stroke-linecap="round" stroke-linejoin="miter"></path></svg>