<svg id="visual" viewBox="0 0 900 600" width="900" height="600" xmlns="http://www.w3.org/2000/svg" xmlns:xlink="http://www.w3.org/1999/xlink" version="1.1"><g transform="translate(28.88863455965327 155.1479120878029)"><path d="M447.2 -567.8C548.1 -448.2 576.9 -277.5 609.4 -105.6C641.9 66.3 678.2 239.4 600.8 321.8C523.3 404.2 332.2 395.9 187.1 398.6C42.1 401.3 -56.9 414.9 -193.6 415.6C-330.3 416.3 -504.6 404.2 -605.5 310.4C-706.4 216.6 -733.8 41.2 -671.7 -84.9C-609.5 -211 -457.7 -287.8 -330.9 -402.8C-204 -517.8 -102 -670.9 35.6 -713.3C173.1 -755.7 346.2 -687.3 447.2 -567.8" fill="#ffffff"></path></g></svg>