<svg id="visual" viewBox="0 0 900 600" width="900" height="600" xmlns="http://www.w3.org/2000/svg" xmlns:xlink="http://www.w3.org/1999/xlink" version="1.1"><path d="M592 0L598.2 16.7C604.3 33.3 616.7 66.7 581 100C545.3 133.3 461.7 166.7 448.8 200C436 233.3 494 266.7 506.7 300C519.3 333.3 486.7 366.7 486.8 400C487 433.3 520 466.7 548.7 500C577.3 533.3 601.7 566.7 613.8 583.3L626 600L0 600L0 583.3C0 566.7 0 533.3 0 500C0 466.7 0 433.3 0 400C0 366.7 0 333.3 0 300C0 266.7 0 233.3 0 200C0 166.7 0 133.3 0 100C0 66.7 0 33.3 0 16.7L0 0Z" fill="#ffffff" stroke-linecap="round" stroke-linejoin="miter"></path></svg>