<svg id="visual" viewBox="0 0 900 600" width="900" height="600" xmlns="http://www.w3.org/2000/svg" xmlns:xlink="http://www.w3.org/1999/xlink" version="1.1"><g transform="translate(55.82742675069818 493.7827316039623)"><path d="M282.6 -320.3C388.5 -248 511.9 -180 536.1 -87.8C560.3 4.3 485.4 120.7 426.6 268.5C367.7 416.4 324.9 595.8 211.2 681C97.4 766.2 -87.4 757.1 -240.7 689.2C-394 621.3 -515.7 494.7 -584.2 349.9C-652.7 205.2 -668.1 42.3 -637.2 -108.8C-606.3 -259.9 -529.1 -399.2 -415.2 -470.1C-301.3 -541 -150.6 -543.5 -31.1 -506.4C88.4 -469.3 176.8 -392.7 282.6 -320.3" fill="#000000"></path></g></svg>