<svg id="visual" viewBox="0 0 600 900" width="600" height="900" xmlns="http://www.w3.org/2000/svg" xmlns:xlink="http://www.w3.org/1999/xlink" version="1.1"><path d="M0 426L16.7 421.2C33.3 416.3 66.7 406.7 100 435.2C133.3 463.7 166.7 530.3 200 540.5C233.3 550.7 266.7 504.3 300 494.3C333.3 484.3 366.7 510.7 400 510.5C433.3 510.3 466.7 483.7 500 460.7C533.3 437.7 566.7 418.3 583.3 408.7L600 399L600 901L583.3 901C566.7 901 533.3 901 500 901C466.7 901 433.3 901 400 901C366.7 901 333.3 901 300 901C266.7 901 233.3 901 200 901C166.7 901 133.3 901 100 901C66.7 901 33.3 901 16.7 901L0 901Z" fill="#000000" stroke-linecap="round" stroke-linejoin="miter"></path></svg>